#!OML:ASF E:/inclinewalkrobotboard/Project1/Captureday1/Session1/subject1.ASF
:FULLY-SPECIFIED
:DEGREES
338
root 0 0 0 1.6340167340925804 -3.7348608044205234 2.931827071681257
lowerback 12.325492236723049 0.8105276358828837 -0.8869871842235034
upperback -4.039514420173355 0.9347884055139926 -0.7557345890526638
thorax -11.285177088884673 0.4388289882024803 -0.5260736781096429
lowerneck -7.111714204660181 1.4251537463489126 4.304485472582588
upperneck 19.48803806369816 2.9139208257814992 -8.285750945467418
head 7.285432045213246 0.9985611670687583 -3.200832489811784
rclavicle -9.445733714050235E-16 -2.1695405249477447E-15
rhumerus 16.205591287831524 11.657435197538208 -50.32133282203657
rradius 67.91752905078056
rwrist 24.94519223392718
rhand -32.919612606967966 -49.23119719281152
rfingers 7.125019999999964
rthumb -6.182629341894302 -79.34716771619881
lclavicle 1.842870830115911E-16 -4.005052927277633E-16
lhumerus 17.600279491073692 -13.071771622963258 49.1618264429644
lradius 66.92514983382883
lwrist -18.618714172340038
lhand -44.011354382225846 -61.21668586545953
lfingers 7.125019999999957
lthumb -16.84921732064144 -31.773558314804514
rfemur -35.903392117013055 -2.404866092697203 14.650623383645772
rtibia 60.2915974201691
rfoot -12.837655116255185 -14.313439166830833
rtoes -8.559939743293436
lfemur -21.367386378478884 5.329844614746281 -15.49776887795497
ltibia 68.85504612157433
lfoot -10.472871100722237 -7.168806238169225
ltoes -11.702096009110495
339
root 0 0 0 1.7940206045630345 -3.752879921063348 2.854208532332267
lowerback 12.320400820213168 0.8136221237976129 -0.82250378669295
upperback -4.048554322366646 0.9488259233060927 -0.7372310256885927
thorax -11.285019349202248 0.44331163524926137 -0.5483068512026184
lowerneck -7.128147495933161 1.4373506243179601 4.312799416308847
upperneck 19.361192910986748 2.9330794745880295 -8.290333732603855
head 7.244721790814691 1.0082646923287077 -3.2007451329385814
rclavicle -1.1647680088440977E-15 -2.0474919186335984E-15
rhumerus 16.656945983850726 12.252237921572517 -50.655615797880024
rradius 68.27971417186401
rwrist 24.563492445276143
rhand -32.941843822748694 -49.229551423621416
rfingers 7.125019999999964
rthumb -6.205975317166221 -79.32278949802074
lclavicle 2.207145173987261E-16 -2.313424933064701E-16
lhumerus 17.78434548711163 -13.429832508561045 49.273295500382524
lradius 67.15701546090077
lwrist -18.419082993172687
lhand -44.02425521821753 -60.95132176726695
lfingers 7.1250199999999575
lthumb -16.860037420226643 -31.51324842828362
rfemur -35.99784147595812 -2.001891349619708 14.99297234925464
rtibia 56.80377063000485
rfoot -16.221502093836726 -15.479030796495714
rtoes -9.865208020456443
lfemur -23.337432307357282 5.078580316528539 -15.548520443850622
ltibia 65.61637313233551
lfoot -14.337451703234818 -4.3742627212274865
ltoes -11.46603303528789
340
root 0 0 0 2.054735062566446 -3.8476985711962497 2.6903709082564484
lowerback 12.266094601029714 0.8711012655454073 -0.6564895588228238
upperback -4.081400409850518 1.046837448188295 -0.7321077931787662
thorax -11.27417504796396 0.4855756479746574 -0.6542952589908906
lowerneck -7.104379079736449 1.4338361763613265 4.324560671311392
upperneck 19.21451171239135 2.9260330570182154 -8.27457155338486
head 7.191110635285703 1.0089783617113923 -3.196155640032541
rclavicle -1.3742051622989288E-15 -1.8369406846735923E-15
rhumerus 17.154624402193967 12.903985347131767 -51.01949094424809
rradius 68.67995402125112
rwrist 24.14807193317077
rhand -32.96715944236716 -49.23193366294719
rfingers 7.125019999999964
rthumb -6.2324275892081875 -79.3053626376884
lclavicle 3.1904884181299725E-16 2.583801928400963E-17
lhumerus 17.94952561273398 -13.744885505852967 49.36800814930062
lradius 67.36216862749603
lwrist -18.246469824355184
lhand -44.03378400684092 -60.71361403343025
lfingers 7.1250199999999575
lthumb -16.866809490003057 -31.279579800862198
rfemur -34.502485991059096 -1.375623684199069 15.839647773133509
rtibia 52.46433642239937
rfoot -20.353447826150774 -16.499375255045376
rtoes -12.03185799003196
lfemur -24.874782921174415 4.3697132396824525 -15.638124010467841
ltibia 58.658104918496775
lfoot -19.587628525604394 -0.5218049015285549
ltoes -12.297850533530116
341
root 0 0 0 2.3510825278475065 -3.99847952880397 2.5009059888276166
lowerback 12.170616503222547 0.9676840677689202 -0.4540933161372225
upperback -4.124672418265393 1.1997432815854014 -0.7452503129791984
thorax -11.24700476147874 0.5534652103873782 -0.806804451446278
lowerneck -7.056387173718099 1.4108274908497596 4.323961249762424
upperneck 19.071903161959803 2.887350530199188 -8.221613980829598
head 7.13551000919629 0.9981846488901734 -3.179887789715579
rclavicle -1.4948727756753443E-15 -1.5690096566315303E-15
rhumerus 17.609575085741305 13.514460714733703 -51.38135429368049
rradius 69.04718871968636
rwrist 23.740619150870245
rhand -32.983947405777954 -49.20302762055206
rfingers 7.125019999999964
rthumb -6.2506258267924615 -79.2608640540942
lclavicle 4.786586659570323E-16 3.324374116632782E-16
lhumerus 18.04027546524798 -13.956932094062202 49.44566509726155
lradius 67.48628779047834
lwrist -18.119176280359632
lhand -44.028654367483774 -60.50456040466736
lfingers 7.1250199999999575
lthumb -16.859791567731072 -31.071379079285006
rfemur -31.4332606303503 -0.574261146480477 17.216117487352697
rtibia 47.489550122781864
rfoot -24.883689598090704 -17.191225220023526
rtoes -14.784034017239309
lfemur -25.364720670405305 3.274014942111585 -15.851964271004963
ltibia 48.74308993299313
lfoot -25.64382690007878 3.8310747382843218
ltoes -14.231512811802908
342
root 0 0 0 2.6115666278146756 -4.150353860238924 2.351029259928473
lowerback 12.051975441597603 1.0687424349786208 -0.2911303593705701
upperback -4.162417879876958 1.3516578019436687 -0.7707568804786681
thorax -11.201512948418687 0.6223274521929267 -0.9474681652870391
lowerneck -7.0135601487626875 1.3750640962478962 4.304939758315983
upperneck 18.962656641357672 2.8294908248191977 -8.138137462336053
head 7.0925723720857965 0.9793031555539687 -3.1527261332741086
rclavicle -1.4955017424921311E-15 -1.2510201771939124E-15
rhumerus 17.927408214786077 13.966361253077965 -51.683360327047716
rradius 69.30373457178227
rwrist 23.409182213084723
rhand -32.98460276025897 -49.129326715397696
rfingers 7.125019999999963
rthumb -6.252518653762651 -79.1769125706127
lclavicle 6.921023290948649E-16 6.522630804667402E-16
lhumerus 18.03022564013598 -14.035226456442622 49.50588973317297
lradius 67.50239171368125
lwrist -18.045891709616654
lhand -44.00511968031207 -60.32946985884525
lfingers 7.1250199999999575
lthumb -16.835797813739465 -30.893530477416117
rfemur -28.12429604232848 0.3918546686317219 18.676519258508208
rtibia 41.66377151156102
rfoot -28.49787537927847 -17.402448863131667
rtoes -17.484209641388023
lfemur -24.502097426306143 2.121243606776119 -16.021292093270876
ltibia 40.33918320257947
lfoot -29.814724943629066 6.6025989788490085
ltoes -16.74686724828647
343
root 0 0 0 2.7812326374068466 -4.2423460361746965 2.2545581718603147
lowerback 11.939575751279158 1.1387507972339272 -0.19130589742342763
upperback -4.186852792065785 1.4537998983549323 -0.7907358023405219
thorax -11.149995086321441 0.6691818175594255 -1.0375266566425423
lowerneck -6.990849518165269 1.338578182561035 4.280793869008015
upperneck 18.927156734049014 2.7722468880476097 -8.062040332729392
head 7.077872430990826 0.9584116043629259 -3.1281014638519347
rclavicle -1.4504560870641991E-15 -9.334914664007103E-16
rhumerus 18.00141423583714 14.1012494858817 -51.813536289348825
rradius 69.36173933281728
rwrist 23.27531405553111
rhand -32.97076381551981 -49.04496642656347
rfingers 7.125019999999963
rthumb -6.238763350500271 -79.08973365928101
lclavicle 8.489487449803029E-16 9.04323374301594E-16
lhumerus 17.921197506112506 -13.957654839032866 49.53231102211265
lradius 67.40571635510796
lwrist -18.04700504444304
lhand -43.96899520934405 -60.234021180906936
lfingers 7.125019999999957
lthumb -16.800543338093906 -30.79248912007718
rfemur -25.789471428006046 1.4084045096563886 19.69703908132492
rtibia 35.60752856180281
rfoot -29.990182297939796 -17.125760545788886
rtoes -19.53705690741279
lfemur -23.00510978326708 1.0727711052875035 -16.067177307165732
ltibia 34.50908714534337
lfoot -30.42512902760923 7.296291071476435
ltoes -18.37230501684592
344
root 0 0 0 2.8588626437355287 -4.263186316431521 2.2054649798990096
lowerback 11.852374730562062 1.1688382698053021 -0.1460021087048986
upperback -4.201574245334656 1.4968079811246313 -0.799441289778572
thorax -11.107916026500975 0.6888425226507435 -1.0761945433660314
lowerneck -6.978087434690671 1.30799662154555 4.265452662671029
upperneck 18.986296099740173 2.7258732272072805 -8.022949215611467
head 7.096422688185285 0.9390427571936965 -3.11720936408979
rclavicle -1.3512971212321524E-15 -7.28766737632037E-16
rhumerus 17.805546128728032 13.87043288785978 -51.72408455322803
rradius 69.20265087956217
rwrist 23.386724380121336
rhand -32.948345796526496 -48.98250459993212
rfingers 7.125019999999962
rthumb -6.215127820857072 -79.03145362946913
lclavicle 9.329978431548999E-16 1.0109125752999628E-15
lhumerus 17.72534614289296 -13.721321914989353 49.513388755842044
lradius 67.20506925215724
lwrist -18.133848958715596
lhand -43.926281232267534 -60.25080607478984
lfingers 7.125019999999956
lthumb -16.75997734031586 -30.80145708424939
rfemur -24.38951826759182 2.0667314893497535 20.04279618026165
rtibia 31.982086575027687
rfoot -29.365691591656816 -16.55577405960745
rtoes -20.760243776643858
lfemur -21.498335821975118 0.28294384052798494 -15.873332339646918
ltibia 31.392155173530714
lfoot -28.677200242461545 6.6469576891989535
ltoes -19.2794899272614
345
root 0 0 0 2.85287418427196 -4.2431908322572705 2.208549671220447
lowerback 11.801313728876831 1.1699582718949841 -0.15007292472999922
upperback -4.211660061304304 1.4960200128523509 -0.8047229680196742
thorax -11.086911503567524 0.6884720663902119 -1.0776863938623777
lowerneck -6.956977845266919 1.28665261553401 4.263539795464472
upperneck 19.13043279788978 2.6952235327391154 -8.028017195199654
head 7.141974496466751 0.9236195816381639 -3.122419270166967
rclavicle -1.1359777426776136E-15 -7.017983332383922E-16
rhumerus 17.421486088360737 13.374049217743979 -51.4596219565339
rradius 68.89291188704064
rwrist 23.69054430489182
rhand -32.92493183915815 -48.95942948671125
rfingers 7.125019999999962
rthumb -6.190112756859081 -79.02043529818104
lclavicle 1.001195796220559E-15 9.360971748634021E-16
lhumerus 17.494316901209444 -13.376994672077865 49.447581341256246
lradius 66.94802997569111
lwrist -18.293204779471466
lhand -43.889581296623504 -60.39026853640177
lfingers 7.125019999999955
lthumb -16.725884847503746 -30.93439747810174
rfemur -23.84137262958682 2.083790030922966 19.667575799189727
rtibia 32.51939376203156
rfoot -26.989712682780493 -15.835483581184699
rtoes -21.069233992162744
lfemur -20.077336883203557 -0.09171707215280495 -15.521503770802509
ltibia 31.369712679103284
lfoot -25.82326280563174 5.056290786519447
ltoes -19.962802324370568
